<?xml version="1.0" standalone="no"?>
<!DOCTYPE svg PUBLIC "-//W3C//DTD SVG 20010904//EN"
 "http://www.w3.org/TR/2001/REC-SVG-20010904/DTD/svg10.dtd">
<svg version="1.0" xmlns="http://www.w3.org/2000/svg"
 width="700.000000pt" height="700.000000pt" viewBox="0 0 700.000000 700.000000"
 preserveAspectRatio="xMidYMid meet">
<metadata>
Created by potrace 1.11, written by Peter Selinger 2001-2013
</metadata>
<g transform="translate(0.000000,700.000000) scale(0.100000,-0.100000)"
fill="#000000" stroke="none">
<path d="M0 3500 l0 -3500 3500 0 3500 0 0 3500 0 3500 -3500 0 -3500 0 0
-3500z m1650 1645 c0 -342 0 -346 -29 -483 -16 -75 -48 -236 -70 -357 -23
-121 -58 -302 -77 -401 -30 -158 -34 -189 -25 -240 32 -192 118 -685 157 -899
l45 -249 -7 -288 -7 -288 -23 0 -23 0 -3 318 -4 317 -52 288 c-29 158 -70 388
-93 510 -71 388 -73 301 20 777 45 228 93 468 106 533 24 111 25 134 25 455 0
186 3 342 7 345 3 4 17 7 30 7 l23 0 0 -345z m-1250 -1435 l0 -1770 -30 0 -30
0 0 538 c0 296 3 1093 7 1770 l6 1232 24 0 23 0 0 -1770z m210 623 c0 -632 -3
-1428 -7 -1770 l-6 -623 -30 0 -30 0 6 1117 c4 615 7 1412 7 1771 l0 652 30 0
30 0 0 -1147z m207 -115 c-4 -694 -7 -1490 -7 -1770 l0 -508 -30 0 -30 0 0
718 c0 395 3 1192 7 1770 l6 1052 30 0 30 0 -6 -1262z m205 -495 c-1 -967 -5
-1764 -7 -1770 -2 -7 -16 -13 -30 -13 l-25 0 0 1770 0 1770 33 0 32 0 -3
-1757z m208 1255 c0 -277 -3 -1073 -7 -1770 l-6 -1268 -30 0 -30 0 6 623 c4
342 7 1138 7 1770 l0 1147 30 0 30 0 0 -502z m210 165 c0 -311 -3 -366 -35
-693 -19 -195 -42 -420 -51 -500 -20 -178 -20 -281 0 -475 58 -555 83 -985 78
-1327 l-3 -208 -24 0 -25 0 0 273 c0 159 -6 342 -15 442 -8 94 -24 280 -35
415 -11 135 -24 283 -30 330 -32 282 -32 292 0 621 17 171 40 388 52 482 18
143 22 240 25 575 l5 402 29 0 29 0 0 -337z m420 5 l0 -331 -141 -491 c-78
-270 -149 -517 -158 -548 -14 -54 -14 -63 2 -120 9 -35 78 -302 152 -594 l135
-531 0 -297 0 -296 -32 0 -31 0 6 282 5 283 -27 105 c-16 58 -76 290 -135 515
-59 226 -118 447 -132 491 -13 45 -24 91 -24 101 0 11 22 91 49 179 27 87 99
332 160 544 l111 386 0 327 0 327 30 0 30 0 0 -332z m210 3 c0 -311 -1 -332
-21 -378 -11 -26 -58 -152 -104 -279 -100 -274 -235 -631 -264 -694 -29 -64
-26 -96 18 -207 21 -54 98 -278 170 -498 73 -220 145 -434 161 -475 33 -88 35
-115 32 -442 l-2 -238 -31 0 -31 0 3 293 4 292 -48 145 c-27 80 -90 260 -140
400 -49 140 -121 344 -159 453 l-68 198 39 102 c21 56 91 239 156 407 64 168
141 372 171 454 l54 148 0 324 0 324 30 0 30 0 0 -329z m210 2 l0 -328 -157
-330 c-224 -474 -353 -756 -353 -774 0 -19 75 -201 318 -772 l182 -426 0 -291
0 -292 -32 0 -31 0 6 269 c5 212 3 280 -7 318 -8 26 -69 170 -135 318 -67 149
-132 299 -145 335 -13 36 -69 167 -125 293 -56 125 -101 234 -101 241 0 16 67
161 334 723 l186 393 0 325 0 325 30 0 30 0 0 -327z m210 1 l0 -326 -102 -182
c-55 -99 -173 -307 -261 -461 -88 -153 -182 -321 -208 -372 l-49 -94 56 -117
c31 -64 168 -331 305 -593 l249 -475 0 -298 0 -297 -27 3 -28 3 4 275 4 275
-67 133 c-37 73 -132 255 -212 404 -129 240 -354 680 -354 691 0 8 256 461
367 647 60 102 144 246 186 321 l77 137 0 326 0 326 30 0 30 0 0 -326z m211
34 c1 -161 0 -311 -1 -333 -2 -34 -53 -115 -363 -580 -198 -297 -360 -548
-359 -558 1 -20 25 -61 342 -577 130 -212 269 -440 308 -507 l72 -122 0 -203
c0 -112 -3 -240 -7 -285 -6 -78 -7 -83 -29 -83 l-23 0 -3 298 -3 297 -141 220
c-355 556 -576 919 -581 954 -4 29 1 45 29 86 19 28 103 149 186 270 83 121
232 340 331 487 l181 267 0 331 0 330 30 0 30 0 1 -292z m212 65 c4 -416 4
-426 -15 -453 -10 -14 -82 -109 -160 -212 -79 -102 -259 -340 -401 -527 l-257
-340 53 -83 c29 -46 161 -236 292 -423 131 -187 294 -422 362 -522 l123 -181
0 -286 0 -286 -30 0 -30 0 0 283 c0 274 -1 283 -23 320 -31 52 -258 374 -522
737 -274 378 -305 423 -305 437 0 7 35 56 78 110 131 165 594 761 684 881 l85
114 6 114 c4 63 3 211 0 329 l-6 215 31 0 32 0 3 -227z m216 -98 l0 -324 -41
-53 c-51 -64 -297 -355 -388 -458 -91 -104 -395 -461 -457 -539 l-51 -64 25
-40 c13 -22 56 -78 93 -126 284 -358 368 -465 536 -681 105 -135 209 -271 232
-302 l42 -57 0 -286 0 -285 -31 0 -31 0 3 283 c4 315 8 295 -71 387 -26 30
-130 159 -230 285 -101 127 -289 359 -417 517 -128 158 -233 294 -233 303 0 9
22 40 48 68 86 93 755 859 864 990 l48 58 0 325 0 324 30 0 29 0 0 -325z m201
-1257 c0 -871 -3 -1667 -7 -1771 l-6 -187 -24 0 -23 0 0 1770 0 1770 30 0 30
0 0 -1582z m207 485 c-4 -603 -7 -1399 -7 -1770 l0 -673 -32 0 -31 0 6 1208
c4 664 7 1460 7 1770 l0 562 32 0 31 0 -6 -1097z m210 295 c-4 -442 -7 -1238
-7 -1770 l0 -968 -30 0 -30 0 0 1243 c0 684 3 1481 7 1770 l6 527 30 0 30 0
-6 -802z m203 248 l0 -553 -26 -47 c-14 -25 -28 -46 -30 -46 -2 0 -4 270 -4
600 l0 600 30 0 30 0 0 -554z m200 116 c0 -406 -1 -440 -17 -454 -45 -38 -43
-53 -43 431 l0 461 30 0 30 0 0 -438z m210 75 l0 -363 -30 -17 -30 -18 0 380
0 381 30 0 30 0 0 -363z m200 48 l0 -314 -30 -16 -30 -16 0 331 0 330 30 0 30
0 0 -315z m200 20 c0 -162 -3 -295 -7 -295 -5 0 -18 -3 -30 -6 l-23 -6 0 301
0 301 30 0 30 0 0 -295z m200 5 l0 -290 -30 0 -30 0 0 290 0 290 30 0 30 0 0
-290z m210 -15 c0 -168 -3 -305 -7 -305 -5 0 -18 3 -30 6 l-23 6 0 299 0 299
30 0 30 0 0 -305z m200 -34 l0 -340 -30 10 -30 11 0 329 0 329 30 0 30 0 0
-339z m200 -56 c0 -217 -2 -395 -5 -395 -3 0 -17 7 -30 16 l-25 16 0 379 0
379 30 0 30 0 0 -395z m200 -97 l-1 -493 -29 33 -30 32 0 460 0 460 30 0 30 0
0 -492z m210 79 c0 -228 -3 -522 -7 -655 l-6 -241 -24 50 -23 51 0 604 0 604
30 0 30 0 0 -413z m197 -449 c-4 -475 -7 -1271 -7 -1770 l0 -908 -30 0 -30 0
0 1088 c0 598 3 1394 7 1770 l6 682 30 0 30 0 -6 -862z m205 -895 c-1 -967 -4
-1764 -7 -1770 -2 -7 -16 -13 -30 -13 l-25 0 0 1583 c0 870 3 1666 7 1770 l6
187 26 0 26 0 -3 -1757z m198 -14 l0 -1770 -32 3 -33 3 0 103 c0 56 1 851 3
1767 l2 1665 30 0 30 0 0 -1771z m-610 -1114 l0 -655 -30 0 -30 0 0 593 0 592
27 63 c15 34 29 62 30 62 2 0 3 -295 3 -655z m-2027 -100 l-6 -555 -24 0 -23
0 0 608 0 607 30 -52 30 -52 -7 -556z m1827 -65 l0 -490 -37 0 -36 0 7 463 7
462 27 28 c14 15 27 27 29 27 2 0 3 -220 3 -490z m-1620 190 c0 -108 -3 -305
-7 -438 l-6 -242 -29 0 -28 0 0 419 c0 230 3 439 6 465 l7 47 28 -27 29 -28 0
-196z m1415 -667 c-2 -7 -16 -13 -30 -13 l-25 0 0 379 0 380 28 21 27 22 3
-389 c1 -213 0 -394 -3 -400z m-1240 735 l25 -11 0 -369 0 -368 -30 0 -30 0 0
380 c0 209 2 380 5 380 2 0 16 -5 30 -12z m1035 -408 l0 -340 -30 0 -30 0 0
328 0 329 23 11 c12 6 25 11 30 11 4 1 7 -152 7 -339z m-829 310 c18 -10 19
-25 19 -330 l0 -320 -30 0 -30 0 0 330 c0 227 3 330 11 330 6 0 19 -5 30 -10z
m629 -345 l0 -305 -30 0 -30 0 0 299 c0 312 -1 308 43 310 16 1 17 -20 17
-304z m-410 -5 l0 -300 -25 0 -25 0 0 300 0 300 25 0 25 0 0 -300z m208 -8 l2
-293 -32 3 -33 3 -3 280 c-1 154 0 286 3 293 3 8 16 12 32 10 l28 -3 3 -293z
m-438 -627 l0 -25 -100 0 -100 0 0 25 0 25 100 0 100 0 0 -25z m-2012 -123
c23 -13 42 -25 42 -28 0 -3 -7 -18 -15 -34 l-15 -29 -35 20 c-73 44 -206 33
-226 -18 -19 -51 15 -70 162 -88 26 -3 66 -16 90 -28 35 -17 47 -31 59 -64 13
-39 12 -46 -5 -89 -16 -37 -30 -53 -65 -71 -41 -22 -54 -24 -145 -21 -80 3
-109 9 -145 27 -25 13 -47 25 -49 27 -5 5 20 64 27 64 3 0 26 -10 51 -22 89
-43 232 -34 250 16 20 53 -9 72 -131 86 -84 10 -151 38 -169 72 -17 32 -13
108 9 138 10 14 38 35 63 48 38 20 55 23 124 19 57 -2 92 -10 123 -25z m2038
-3 c71 -37 108 -99 112 -194 8 -160 -81 -255 -238 -255 -118 0 -206 70 -230
184 -26 125 35 240 149 283 54 20 149 12 207 -18z m-4124 -94 l3 -114 120 114
120 114 55 0 55 0 -92 -85 -92 -85 90 -135 c49 -74 93 -141 96 -149 4 -12 -5
-15 -40 -15 l-44 0 -74 111 c-41 62 -77 117 -81 123 -5 7 -28 -9 -62 -43 -55
-54 -55 -55 -58 -120 l-3 -66 -37 -3 -38 -3 0 235 0 236 40 0 39 0 3 -115z
m881 -113 c53 -125 97 -230 97 -234 0 -5 -17 -8 -39 -8 -37 0 -39 1 -64 60
l-26 60 -109 0 -109 0 -26 -60 c-24 -57 -27 -60 -61 -60 -20 0 -36 5 -36 11 0
6 43 112 96 235 l96 224 42 0 41 -1 98 -227z m625 208 c83 -51 79 -206 -6
-242 -15 -7 -29 -13 -31 -15 -2 -2 21 -41 52 -88 32 -47 57 -89 57 -95 0 -5
-18 -10 -40 -10 -40 0 -41 1 -103 95 l-62 96 -70 -3 -70 -3 -3 -92 -3 -93 -34
0 -35 0 0 235 0 235 158 0 c140 0 161 -2 190 -20z m1166 -204 c53 -123 96
-229 96 -235 0 -15 -65 -14 -77 2 -6 6 -18 33 -28 60 l-18 47 -109 0 -109 0
-26 -60 c-26 -58 -27 -60 -65 -60 -21 0 -38 3 -38 7 0 5 44 110 97 235 l98
228 41 0 42 0 96 -224z m356 29 l0 -194 148 -3 147 -3 3 -37 3 -38 -190 0
-191 0 0 235 0 235 40 0 40 0 0 -195z m1772 157 c31 -30 33 -37 33 -101 0 -60
-3 -73 -25 -96 -14 -15 -35 -31 -48 -36 -22 -9 -22 -10 38 -98 33 -50 60 -93
60 -96 0 -3 -20 -5 -44 -5 l-43 0 -63 95 -63 95 -68 0 -68 0 -3 -92 -3 -93
-37 -3 -38 -3 0 236 0 236 170 -3 170 -3 32 -33z m406 -90 c29 -70 62 -149 75
-175 l22 -49 75 176 74 176 53 0 53 0 0 -235 0 -235 -35 0 -35 0 0 182 c0 110
-4 178 -9 173 -5 -6 -42 -88 -82 -182 -68 -164 -73 -173 -99 -173 -26 0 -31 9
-100 173 -40 94 -76 176 -81 182 -5 5 -9 -68 -9 -173 l0 -182 -35 0 -35 0 0
235 0 235 58 0 57 0 53 -128z m952 93 l0 -35 -155 0 -155 0 0 -60 0 -60 135 0
135 0 0 -40 0 -40 -135 0 -135 0 0 -60 0 -60 155 0 155 0 0 -40 0 -40 -192 2
-193 3 -3 233 -2 232 195 0 195 0 0 -35z"/>
<path d="M4350 1418 c-105 -54 -116 -220 -19 -289 72 -51 183 -28 229 46 19
30 22 47 18 103 -4 79 -24 112 -84 142 -52 26 -89 25 -144 -2z"/>
<path d="M1147 1380 c-8 -19 -26 -63 -40 -97 l-26 -63 80 0 c43 0 79 2 79 4 0
2 -18 46 -39 97 l-39 94 -15 -35z"/>
<path d="M1650 1360 l0 -70 110 0 c124 0 150 12 150 70 0 58 -26 70 -150 70
l-110 0 0 -70z"/>
<path d="M2916 1321 c-20 -50 -36 -93 -36 -96 0 -3 34 -5 75 -5 41 0 75 3 75
8 0 11 -62 166 -70 175 -4 5 -24 -32 -44 -82z"/>
<path d="M4930 1360 l0 -70 103 0 c124 0 147 11 147 70 0 59 -23 70 -147 70
l-103 0 0 -70z"/>
</g>
</svg>
