<?xml version="1.0" standalone="no"?>
<!DOCTYPE svg PUBLIC "-//W3C//DTD SVG 20010904//EN"
 "http://www.w3.org/TR/2001/REC-SVG-20010904/DTD/svg10.dtd">
<svg version="1.0" xmlns="http://www.w3.org/2000/svg"
 width="842.000000pt" height="842.000000pt" viewBox="0 0 842.000000 842.000000"
 preserveAspectRatio="xMidYMid meet">
<metadata>
Created by potrace 1.11, written by Peter Selinger 2001-2013
</metadata>
<g transform="translate(0.000000,842.000000) scale(0.100000,-0.100000)"
fill="#000000" stroke="none">
<path d="M1217 7163 c-4 -3 -7 -1340 -7 -2970 l0 -2963 3005 0 3005 0 -2 2968
-3 2967 -2996 3 c-1648 1 -2999 -1 -3002 -5z m373 -2326 c0 -613 -3 -1249 -7
-1415 -6 -293 -7 -302 -26 -302 -20 0 -20 4 -14 827 4 454 7 1091 7 1415 0
581 0 588 20 588 20 0 20 -7 20 -1113z m177 211 c-4 -496 -7 -1132 -7 -1415 0
-506 0 -513 -20 -513 -20 0 -20 7 -20 1415 l0 1415 27 0 26 0 -6 -902z m180
255 c-4 -355 -7 -992 -7 -1415 l0 -768 -26 0 -27 0 7 77 c3 42 6 678 6 1415
l0 1338 27 0 26 0 -6 -647z m173 -768 l0 -1415 -25 0 -25 0 0 358 c0 196 3
833 7 1415 6 1016 7 1057 25 1057 17 0 18 -49 18 -1415z m180 887 c0 -291 -3
-928 -7 -1415 -6 -851 -7 -887 -25 -887 -17 0 -18 25 -18 613 0 336 3 973 7
1415 6 769 7 802 25 802 17 0 18 -22 18 -528z m180 270 c0 -235 -4 -291 -42
-642 -27 -245 -42 -431 -42 -510 0 -69 15 -273 33 -455 28 -273 35 -385 38
-647 l5 -318 -21 0 c-21 0 -21 3 -21 243 0 233 -15 442 -79 1085 -6 54 -6 128
-1 180 22 223 51 479 66 597 12 91 18 210 19 400 1 340 0 325 25 325 19 0 20
-7 20 -258z m180 -14 c0 -210 -4 -288 -16 -338 -8 -36 -49 -231 -90 -434 l-75
-368 26 -142 c15 -77 55 -294 91 -482 l64 -341 0 -227 0 -226 -25 0 -25 0 0
245 0 246 -45 242 c-25 133 -64 334 -86 447 -22 112 -40 220 -41 240 0 35 112
582 154 755 23 90 25 151 28 588 0 60 2 67 20 67 20 0 20 -7 20 -272z m180 9
c0 -196 -4 -275 -14 -308 -7 -24 -50 -165 -95 -314 -46 -148 -101 -326 -123
-394 l-40 -125 16 -55 c9 -31 68 -245 131 -475 l115 -419 0 -239 c0 -231 -1
-238 -20 -238 -19 0 -20 7 -20 232 l0 232 -101 360 c-55 199 -116 414 -135
478 l-36 117 45 138 c25 76 89 278 141 449 l96 311 0 257 c0 249 1 256 20 256
19 0 20 -7 20 -263z m180 6 l0 -256 -62 -156 c-156 -395 -238 -601 -262 -655
-31 -71 -32 -100 -5 -163 28 -63 157 -417 224 -613 29 -85 62 -177 74 -203 19
-45 21 -67 21 -288 0 -232 -1 -239 -20 -239 -19 0 -20 7 -20 231 0 224 -1 232
-26 295 -14 35 -34 92 -43 127 -10 34 -67 187 -125 340 -114 295 -156 412
-156 434 0 8 39 107 86 221 48 114 126 307 175 429 l89 221 0 266 0 266 25 0
25 0 0 -257z m180 0 l0 -258 -222 -442 -222 -443 13 -37 c8 -21 106 -240 218
-486 l203 -448 0 -229 c0 -223 -1 -230 -20 -230 -19 0 -20 7 -20 231 l0 231
-39 82 c-21 44 -71 149 -111 231 -39 83 -85 182 -100 220 -16 39 -65 146 -109
240 -45 93 -81 176 -81 184 0 8 99 209 219 447 l220 434 7 265 c7 249 8 265
25 265 18 0 19 -14 19 -257z m180 -3 l0 -260 -201 -332 c-111 -183 -218 -360
-237 -393 -19 -33 -48 -82 -63 -108 -16 -27 -29 -52 -29 -58 0 -13 140 -273
320 -594 87 -154 167 -299 179 -322 20 -39 21 -57 21 -273 0 -223 -1 -230 -20
-230 -19 0 -20 7 -20 230 l0 231 -99 177 c-55 97 -149 264 -210 371 -60 107
-136 245 -167 306 l-58 111 99 164 c54 91 158 260 230 375 73 116 150 242 173
282 l42 71 0 256 c0 249 1 256 20 256 19 0 20 -7 20 -260z m180 -3 l0 -262
-306 -430 c-169 -237 -309 -437 -311 -446 -7 -23 -6 -24 240 -399 122 -184
256 -391 299 -459 l78 -124 0 -201 c0 -223 -3 -246 -32 -246 -18 0 -19 8 -17
230 l2 230 -29 45 c-16 25 -155 233 -308 463 -154 229 -282 429 -284 444 -3
22 35 81 225 340 260 354 375 514 392 545 7 15 11 105 11 277 0 249 1 256 20
256 19 0 20 -7 20 -263z m180 -1 l0 -263 -227 -279 c-189 -233 -440 -545 -475
-591 -12 -16 19 -61 336 -487 144 -193 286 -385 315 -426 l52 -76 -7 -222 c-7
-213 -8 -222 -27 -222 -19 0 -20 5 -15 214 5 184 3 218 -11 248 -15 34 -249
345 -561 747 -82 107 -150 201 -150 208 0 8 101 135 225 283 123 148 288 346
365 441 l140 173 0 258 c0 251 1 258 20 258 19 0 20 -7 20 -264z m180 1 l0
-264 -97 -109 c-53 -60 -147 -163 -208 -229 -117 -127 -384 -421 -448 -493
-20 -23 -37 -48 -37 -56 0 -8 18 -36 40 -63 96 -118 181 -219 416 -499 137
-165 269 -323 292 -352 l42 -54 0 -223 c0 -214 -1 -223 -20 -228 -11 -3 -23
-1 -26 5 -3 5 -4 110 -2 233 l3 223 -30 35 c-103 123 -325 380 -535 622 -133
154 -245 286 -247 293 -3 7 16 36 43 65 26 28 177 189 334 357 157 169 320
345 363 392 l77 85 0 262 c0 254 1 261 20 261 19 0 20 -7 20 -263z m180 -1152
l0 -1415 -27 0 -26 0 6 887 c4 487 7 1124 7 1415 0 521 0 528 20 528 20 0 20
-7 20 -1415z m177 613 c-4 -442 -7 -1079 -7 -1415 0 -606 0 -613 -20 -613 -20
0 -20 7 -20 1415 l0 1415 27 0 26 0 -6 -802z m180 90 c-4 -392 -7 -1029 -7
-1415 l0 -703 -22 0 -23 0 3 1415 2 1415 27 0 26 0 -6 -712z m173 265 c0 -429
-1 -449 -20 -473 -19 -25 -20 -23 -20 448 0 465 0 472 20 472 20 0 20 -7 20
-447z m170 99 c0 -336 -1 -350 -20 -367 -20 -18 -20 -17 -20 348 0 360 0 367
20 367 20 0 20 -7 20 -348z m180 60 c0 -276 -1 -288 -20 -300 -20 -12 -20 -10
-20 288 0 293 0 300 20 300 20 0 20 -7 20 -288z m170 38 c0 -239 -1 -250 -20
-260 -20 -11 -20 -8 -20 250 0 253 1 260 20 260 19 0 20 -7 20 -250z m180 15
c0 -228 -1 -235 -20 -235 -19 0 -20 7 -20 235 0 228 1 235 20 235 19 0 20 -7
20 -235z m170 5 c0 -223 -1 -230 -20 -230 -19 0 -20 7 -20 230 0 223 1 230 20
230 19 0 20 -7 20 -230z m170 -11 c0 -224 -1 -240 -17 -237 -16 3 -18 24 -21
241 -2 232 -2 237 18 237 20 0 20 -6 20 -241z m175 -21 c-4 -145 -8 -264 -10
-266 -1 -1 -10 0 -19 4 -14 5 -16 34 -16 265 l0 259 26 0 26 0 -7 -262z m175
-53 c0 -313 0 -315 -20 -303 -19 12 -20 24 -20 315 0 296 0 303 20 303 20 0
20 -7 20 -315z m170 -72 c0 -385 0 -386 -20 -368 -19 17 -20 31 -20 387 0 361
0 368 20 368 20 0 20 -7 20 -387z m180 -128 c0 -283 -2 -515 -5 -515 -2 0 -11
13 -20 29 -17 33 -22 237 -17 719 2 275 3 282 22 282 20 0 20 -7 20 -515z
m170 -13 c0 -291 -3 -928 -7 -1415 -6 -851 -7 -887 -25 -887 -17 0 -18 44 -18
1258 0 691 3 1328 7 1415 6 144 8 157 25 157 17 0 18 -22 18 -528z m177 -194
c-4 -397 -7 -1033 -7 -1415 0 -686 0 -693 -20 -693 -20 0 -20 7 -20 1415 l0
1415 27 0 26 0 -6 -722z m173 -61 c0 -431 -3 -1068 -7 -1415 -6 -604 -7 -632
-25 -632 -17 0 -18 49 -18 1415 l0 1415 25 0 25 0 0 -783z m-530 -1537 c0
-503 0 -510 -20 -510 -20 0 -20 7 -20 475 0 424 2 478 17 510 9 19 18 35 20
35 2 0 3 -229 3 -510z m-1751 406 c20 -32 21 -45 21 -443 0 -226 -3 -425 -6
-442 -5 -21 -12 -31 -25 -31 -18 0 -19 17 -19 475 0 261 2 475 4 475 2 0 14
-15 25 -34z m1581 -531 l0 -385 -25 0 -25 0 0 362 c0 358 0 362 22 385 12 13
23 23 25 23 2 0 3 -173 3 -385z m-1390 -37 l0 -348 -25 0 -25 0 0 372 0 371
25 -23 25 -23 0 -349z m1220 -38 l0 -310 -25 0 -25 0 0 300 c0 274 1 300 18
309 9 6 20 11 25 11 4 0 7 -139 7 -310z m-1050 -20 c0 -283 0 -290 -20 -290
-20 0 -20 7 -20 300 0 298 0 301 20 290 19 -10 20 -21 20 -300z m870 -25 l0
-265 -22 0 -23 0 3 257 c4 250 7 272 35 273 4 0 7 -119 7 -265z m-709 243 c14
-11 15 -47 11 -260 -4 -235 -5 -248 -23 -248 -18 0 -19 12 -19 260 0 143 4
260 8 260 5 0 15 -6 23 -12z m529 -268 c0 -233 -1 -240 -20 -240 -19 0 -20 7
-20 234 0 233 1 242 33 245 4 1 7 -107 7 -239z m-340 -5 c0 -228 -1 -235 -20
-235 -19 0 -20 7 -20 235 0 228 1 235 20 235 19 0 20 -7 20 -235z m170 -5 c0
-223 -1 -230 -20 -230 -19 0 -20 7 -20 230 0 223 1 230 20 230 19 0 20 -7 20
-230z m-370 -505 c0 -12 -16 -15 -80 -15 -64 0 -80 3 -80 15 0 12 16 15 80 15
64 0 80 -3 80 -15z m-3520 -180 c0 -52 3 -95 8 -95 4 0 55 43 115 95 95 84
112 95 145 95 l37 -1 -77 -70 -77 -70 63 -87 c34 -48 70 -99 80 -114 l18 -28
-34 0 c-33 0 -39 6 -102 95 -75 106 -66 104 -138 36 -34 -31 -38 -40 -38 -83
0 -47 -1 -48 -30 -48 l-30 0 0 185 0 185 30 0 30 0 0 -95z m754 -77 c43 -95
81 -178 83 -185 4 -9 -5 -13 -26 -13 -28 0 -34 5 -51 45 l-19 45 -96 0 -95 0
-22 -45 c-19 -38 -27 -45 -51 -45 -19 0 -28 4 -24 13 2 7 40 90 83 185 77 168
79 172 109 172 30 0 32 -4 109 -172z m536 154 c19 -9 40 -28 47 -42 27 -53 7
-124 -41 -150 -14 -7 -26 -17 -26 -22 0 -5 17 -32 38 -61 58 -79 58 -77 18
-77 -32 0 -39 6 -87 75 l-52 76 -61 -3 -61 -3 -3 -72 -3 -73 -29 0 -30 0 0
185 0 185 128 0 c101 0 134 -4 162 -18z m498 -2 c38 -17 42 -22 32 -40 -13
-24 -9 -24 -53 -5 -20 8 -61 15 -92 15 -46 0 -60 -4 -81 -25 -20 -20 -23 -29
-14 -44 11 -21 66 -41 115 -41 95 -1 155 -42 155 -106 0 -99 -168 -146 -306
-85 -42 19 -43 21 -33 45 l12 25 41 -22 c56 -29 174 -31 205 -3 24 22 27 48 8
64 -14 12 -76 26 -161 37 -66 9 -96 39 -96 98 0 47 22 76 70 96 44 17 151 12
198 -9z m509 -160 c45 -96 82 -178 82 -182 1 -5 -13 -8 -30 -8 -26 0 -33 6
-50 45 l-20 45 -98 0 -98 0 -17 -45 c-15 -39 -21 -45 -47 -45 -16 0 -29 3 -29
7 0 3 37 87 82 185 81 178 82 179 112 176 29 -3 35 -11 113 -178z m303 20 l0
-160 130 0 130 0 0 -25 0 -25 -160 0 -160 0 0 185 0 185 30 0 30 0 0 -160z
m927 145 c48 -20 71 -41 94 -87 44 -85 12 -198 -69 -246 -102 -59 -245 -24
-291 71 -37 76 -21 178 36 229 51 47 160 62 230 33z m569 0 c68 -28 82 -130
23 -179 -15 -13 -34 -26 -40 -28 -8 -3 8 -31 39 -74 l50 -69 -31 -3 c-34 -4
-34 -4 -110 98 -33 45 -34 45 -93 45 l-59 0 -3 -72 -3 -73 -29 0 -30 0 0 185
0 185 125 0 c88 0 136 -4 161 -15z m388 -123 c34 -74 65 -135 71 -135 5 -1 37
59 71 133 l61 135 44 0 44 0 3 -182 2 -183 -35 0 -36 0 2 140 c1 77 0 142 -2
145 -3 2 -34 -61 -69 -141 -60 -133 -67 -144 -89 -142 -21 3 -33 23 -86 141
-34 76 -65 140 -69 144 -3 3 -6 -60 -6 -140 l0 -147 -30 0 -30 0 0 178 c0 98
3 182 7 186 4 4 25 6 47 4 l40 -3 60 -133z m806 113 l0 -24 -132 -3 -133 -3
-3 -52 -3 -53 115 0 116 0 0 -25 0 -25 -115 0 -115 0 0 -55 0 -55 135 0 135 0
0 -25 0 -25 -165 0 -165 0 0 185 0 185 165 0 165 0 0 -25z"/>
<path d="M2214 2634 c-51 -114 -53 -104 26 -104 39 0 70 4 70 9 0 13 -51 133
-61 145 -5 5 -20 -17 -35 -50z"/>
<path d="M2668 2704 c-5 -4 -8 -31 -8 -61 l0 -53 98 0 c83 0 102 3 115 18 21
23 22 52 3 78 -12 16 -29 20 -108 22 -51 2 -96 0 -100 -4z"/>
<path d="M3746 2616 c-20 -43 -36 -80 -36 -82 0 -2 32 -4 70 -4 50 0 70 4 70
13 -1 6 -16 44 -34 82 l-33 70 -37 -79z"/>
<path d="M4973 2695 c-50 -21 -75 -69 -70 -133 5 -64 42 -108 103 -122 94 -22
174 38 174 130 0 109 -102 171 -207 125z"/>
<path d="M5470 2650 l0 -60 99 0 c108 0 124 7 124 57 0 48 -33 63 -134 63
l-89 0 0 -60z"/>
</g>
</svg>
