<svg xmlns="http://www.w3.org/2000/svg" viewBox="0 0 238.25 159.27"><defs><style>.cls-1{fill:#2f1218;}.cls-2{fill:#2c2e33;}</style></defs><g id="Layer_2" data-name="Layer 2"><g id="Layer_1-2" data-name="Layer 1"><path class="cls-1" d="M2.52,22.92c0-7.43-.07-15.29,0-22.86H.29C.29,42.62.06,84.59,0,126.55H2.19C2.28,91.49,2.52,58,2.52,22.92Z"/><path class="cls-1" d="M18.19,63.4c0-21.41.24-42,.19-63.34H15.92c0,7.92.06,15.69.06,23.56,0,34.31-.23,69-.28,102.93H18C18,105.33,18.19,84,18.19,63.4Z"/><path class="cls-1" d="M10.47,0H8.13c-.05,42.49-.32,84.48-.37,126.49h2.31c0-21.47.18-42.62.19-63.65C10.26,42.33,10.58,20.27,10.47,0Z"/><path class="cls-1" d="M26.26,0H23.9c0,42.42-.31,84.74-.36,126.49h2.31c0-34.83.28-69.6.28-103.43C26.13,15.4,26.25,7.57,26.26,0Z"/><path class="cls-1" d="M31.84,0c0,42.51-.32,84.34-.37,126.49h2.21c0-42.19.32-84.65.37-126.49Z"/><path class="cls-1" d="M41.5,101.78c-1-11.29-1.92-22.87-3.12-33.86A47.51,47.51,0,0,1,38,63c0-3.14.69-6.46,1-9.64.65-6.65,1.3-12.91,2-19.39.35-3.24.82-6.53,1-9.75.37-6.72.1-13.21.1-20.39V0H39.84c0,1.1,0,2.19-.07,3.27-.25,6.67.36,13.41,0,20.09-.35,6.51-1.42,13.12-2.11,19.69-.34,3.28-.67,6.65-1,10-.5,3.29-.83,6.61-1,9.94a95.79,95.79,0,0,0,1,10.55c.81,7.14,1.3,14.22,1.9,21.2.31,3.54.86,7.07,1,10.55.3,7.06.17,14.17,0,21.25h2.18v-4.18C41.8,115,42.07,108.12,41.5,101.78Z"/><path class="cls-1" d="M49.94,105.39c-.17-1.69-.69-3.44-1-5.22C47,89.51,44.85,78.85,43,68.32a32.1,32.1,0,0,1-.9-5.42,29.4,29.4,0,0,1,1-4.92c1.67-8.61,3.27-16.52,5-24.82.7-3.32,1.76-6.73,2-9.94s0-6.58,0-9.85c0-4.5,0-8.92.07-13.31H47.79c-.06,4.62-.1,9.15,0,13.61a85.18,85.18,0,0,1,0,9.85c-.29,3.16-1.34,6.52-2,9.84C44.13,41.6,42.33,49.69,40.66,58a30.53,30.53,0,0,0-1,5,34.47,34.47,0,0,0,1,5.42c2.1,11,4.19,21.62,6.13,32.45a41.4,41.4,0,0,1,.91,5.53c.19,5.94-.25,12.33-.1,18.48v1.67h2.25c0-3.84,0-7.69,0-11.61C49.94,111.72,50.19,108.41,49.94,105.39Z"/><path class="cls-1" d="M47.63,68.32c-.51-1.76-1.45-3.9-1.41-5.42,0-1.36.89-3.37,1.41-5,3.17-10.07,6.1-19.58,9-29.54a34.13,34.13,0,0,0,1.56-4.94c.35-3.26,0-6.8,0-10.15,0-4.38,0-8.8.05-13.21H56c0,8.28-.12,16.71-.17,23.66-3.6,11.33-7,22.91-10.65,34.36-.5,1.59-1.49,3.56-1.5,4.92,0,1.53,1,3.5,1.5,5.33,3,11,6.06,21.34,9,32.24A37.66,37.66,0,0,1,55.73,106c.31,3-.1,6.2-.1,9.24v11.31H57.9c.05-7,.1-14,0-21C54.48,93.29,51.13,80.63,47.63,68.32Z"/><path class="cls-1" d="M65.71,105.6c-.23-1.51-1.33-3.4-2-5.23C61.71,95,60,89.32,58.08,84.2s-3.71-10.62-5.82-15.88c-.64-1.59-1.95-3.93-1.91-5.42s1.32-3.44,1.91-4.92c2-5,4.07-9.92,5.93-14.57,2.7-6.76,4.91-13.26,7.73-19.59C66,16.12,66,8,66,.06H63.77c0,7.87-.1,15.74-.16,23.66-3.76,10-7.91,19.72-11.85,29.44-1.32,3.24-2.84,6.46-3.92,9.84C51.35,73.67,56,84.2,59.79,95c.63,1.78,1,3.75,1.71,5.62.64,1.68,1.79,3.71,2,5.33.41,3,0,6.39,0,9.54,0,3.73,0,7.41,0,11.11H65.7V114.74C65.71,111.66,66.19,108.42,65.71,105.6Z"/><path class="cls-1" d="M54.36,63c5.45-11.44,11.51-23.18,17.28-34.66.77-1.53,2.2-3.53,2.41-5,.45-3.13,0-6.67,0-10,0-4.51.06-8.95.09-13.31h-2.3c0,7.92,0,15.75-.1,23.46-6.69,13.16-13.43,26.29-20,39.58,2.32,5.33,5.09,10.71,7.53,16,.85,1.84,1.44,3.76,2.31,5.63,2.33,5,5.07,10.76,7.54,16,.84,1.79,2.08,3.74,2.41,5.53.48,2.65,0,6.23,0,9.44,0,3.57-.06,7.25-.11,10.91h2.34c0-7,0-14,.08-20.55C67.33,91.69,60.69,77.5,54.36,63Z"/><path class="cls-1" d="M81.88,105.9c-7.17-13.4-14.94-26.31-22-40-.48-.93-1.32-2.19-1.3-2.91s.85-1.5,1.4-2.51.85-1.87,1.31-2.61c7.11-11.63,14-22.86,20.8-34.36,0-7.71.07-15.5.08-23.46H79.94c0,7.92-.12,16-.17,23.46-3.88,6.65-7.93,13.17-12,19.59s-7.94,13.15-12,19.79c7.46,14.94,16.16,28.65,23.91,43.3-.07,6.37-.09,13.38-.1,20.35h2.26C81.87,119.66,81.92,112.86,81.88,105.9Z"/><path class="cls-1" d="M64,65.91c-.54-.86-1.65-2.19-1.61-2.91,0-.55,1-1.72,1.61-2.51,1.83-2.54,3.59-5.16,5.23-7.44C75.79,44,82,35.27,88.41,26.05c.65-.93,1.5-1.65,1.71-2.51.34-1.38,0-3.15,0-4.82.09-6.08.11-12.39.11-18.64H88c0,6-.07,12.16-.07,18.33a23.88,23.88,0,0,1-.1,5A10.19,10.19,0,0,1,86.19,26C78.5,37,70.87,47.07,63.09,57.86c-1,1.38-3.32,3.73-3.32,5.23a9,9,0,0,0,1.41,3C68.94,77.92,76.52,89,84.29,100.65c.85,1.29,3.16,4.07,3.41,5.52a29.82,29.82,0,0,1,0,4.63c0,5.36,0,10.54-.06,15.73h2.22c.06-6.86.2-13.82.15-20.35C81.75,92.52,72.52,79.5,64,65.91Z"/><path class="cls-1" d="M82.29,84.6C77,77.41,71.4,70.6,66.51,63c7.81-10,15.91-19.65,23.81-29.54,2-2.21,3.89-4.88,5.93-7.33.77-.93,1.89-1.86,2-2.71.4-3,0-6.57,0-10V.05H95.88c.08,7.89.34,15.8,0,23.36C88,33.57,79.59,43.22,71.47,53.15c-2,2.49-4.11,4.81-6.23,7.33-.57.67-1.84,1.88-1.81,2.71,0,.67,1.26,2.08,1.81,2.81,4.63,6.25,9.93,12.77,14.36,18.59C84.24,90.77,89,97,93.77,103.37a10.63,10.63,0,0,1,1.91,2.82c.63,2.46,0,6.25,0,9.14v11.21h2.26c0-6.88,0-13.63.09-20.45C93,98.76,87.55,91.76,82.29,84.6Z"/><path class="cls-1" d="M88.41,84.6c-3-3.49-6-7.09-9-10.55C78,72.21,76.53,70.38,75,68.63a31.66,31.66,0,0,1-4.32-5.53C76.38,56.29,82.58,50,88.45,43.31c3-3.23,6.07-6.47,9-9.74s6-6.56,8.84-10c-.07-8,0-15.78.07-23.46h-2.3c0,7.91.11,15.88-.08,23.46C93.53,35.34,82.49,46.58,71.83,58.18c-.61.69-1.4,1.42-2.31,2.41-.54.58-2.16,1.75-2.11,2.71,0,.49,1.07,1.49,1.61,2.11,8.5,9.93,17.69,20.29,25.81,29.94,1.64,1.8,2.86,3.48,4.53,5.42,1.15,1.36,4,3.78,4.42,5.53.64,2.5,0,6.29,0,9.14v11.11H106c0-6.84.06-13.57.08-20.45C100.41,98.72,94.19,91.84,88.41,84.6Z"/><path class="cls-2" d="M112,0c0,27.93-.19,56-.19,83.84,0,13.65-.1,26.24-.1,40.08v2.57h2.22c0-42.65.25-84.17.29-126.49Z"/><path class="cls-2" d="M119.84,0c0,41.55-.28,82.64-.28,124v2.47h2.21c0-42.31.31-84.61.36-126.49Z"/><path class="cls-2" d="M127.69,24c0,20.45-.1,40.11-.1,60.08,0,14-.11,28.24-.17,42.45h2.3c.05-42.25.32-84.35.37-126.49h-2.32C127.74,8.21,127.69,16.07,127.69,24Z"/><path class="cls-2" d="M137.93,0h-2.28V4.19c0,13.15,0,26.17-.06,39.16a43,43,0,0,1,2.26-3.67Q137.91,19.88,137.93,0Z"/><path class="cls-2" d="M135.34,126.55h2.22q0-20,.1-39.92A39.63,39.63,0,0,1,135.45,83C135.4,97.45,135.36,111.94,135.34,126.55Z"/><path class="cls-2" d="M143,93q-.06,16.82-.08,33.57h2.31c0-10.5.07-20.94.1-31.4C144.51,94.45,143.72,93.73,143,93Z"/><path class="cls-2" d="M145.45,31.36V.06h-2.23q0,16.71-.07,33.36C143.9,32.71,144.67,32,145.45,31.36Z"/><path class="cls-2" d="M153.29,0H151c0,8,.12,16,0,23.86v3.47c.74-.45,1.5-.89,2.27-1.3Q153.26,13.09,153.29,0Z"/><path class="cls-2" d="M150.8,124.08v2.47h2.11q0-13.11.05-26.17c-.72-.39-1.42-.79-2.12-1.22C150.83,107.38,150.8,115.55,150.8,124.08Z"/><path class="cls-2" d="M161,0h-2.31c0,8-.08,15.78-.08,23.63.77-.29,1.54-.56,2.33-.8Q161,11.48,161,0Z"/><path class="cls-2" d="M158.34,126.55h2.3c0-7.65,0-15.27.07-22.91-.77-.24-1.52-.5-2.26-.78Q158.39,114.68,158.34,126.55Z"/><path class="cls-2" d="M166.25,126.55h2.23v-21.2c-.75-.1-1.49-.21-2.23-.34C166.28,112.18,166.26,119.33,166.25,126.55Z"/><path class="cls-2" d="M168.85,0h-2.28v21.5q1.14-.19,2.28-.33Q168.84,10.65,168.85,0Z"/><path class="cls-2" d="M176.38,20.94V.06h-2.19q0,10.43-.05,20.83h.16C175,20.89,175.68,20.91,176.38,20.94Z"/><path class="cls-2" d="M173.84,105.71v20.84h2.35c0-7,0-13.91.06-20.88-.64,0-1.29,0-1.94,0Z"/><path class="cls-2" d="M184.19,0h-2.25c0,7.23.07,14.37,0,21.49.75.12,1.49.27,2.22.43Q184.19,11,184.19,0Z"/><path class="cls-2" d="M181.71,124.08v2.47h2.11q0-11,.05-21.86c-.7.15-1.41.28-2.13.4C181.74,111.34,181.71,117.6,181.71,124.08Z"/><path class="cls-2" d="M191.92,0h-2.31c0,8-.08,15.68-.08,23.47.78.28,1.56.59,2.32.91C191.87,16.32,191.91,8.19,191.92,0Z"/><path class="cls-2" d="M189.25,126.55h2.31c0-8.11,0-16.19.07-24.29-.75.31-1.5.61-2.26.88Q189.31,114.81,189.25,126.55Z"/><path class="cls-2" d="M197.19,126.55h2.22q0-14.3.07-28.54c-.73.5-1.47,1-2.23,1.43C197.19,108.45,197.19,117.47,197.19,126.55Z"/><path class="cls-2" d="M199.76,0h-2.28V27.25c.78.47,1.53,1,2.27,1.47Q199.75,14.41,199.76,0Z"/><path class="cls-2" d="M204.79,93.74q0,16.44-.07,32.81h2.34c.06-11.78.08-23.49.11-35.23C206.41,92.16,205.62,93,204.79,93.74Z"/><path class="cls-2" d="M207.28,35.41V.06h-2.23q0,16.53-.08,33C205.79,33.82,206.55,34.6,207.28,35.41Z"/><path class="cls-2" d="M215.12,0h-2.24c0,8,.11,16,0,23.86-.12,6.41,0,12.86.07,19.31A42.64,42.64,0,0,1,215,47.56Q215.08,23.88,215.12,0Z"/><path class="cls-2" d="M212.73,84c0,13.59-.1,26.35-.1,40.08v2.47h2.11q0-23.67.12-47.27a41.46,41.46,0,0,1-2.15,4.39Z"/><path class="cls-2" d="M220.44,24c0,20.45-.1,40.11-.1,60.08,0,14-.11,28.24-.17,42.45h2.3c.05-42.25.32-84.35.37-126.49h-2.32C220.49,8.21,220.44,16.07,220.44,24Z"/><path class="cls-2" d="M228.38,4.23c0,41.18-.24,81.28-.29,122.32h2.22c0-42.4.33-84.47.37-126.49H228.4C228.39,1.48,228.38,2.88,228.38,4.23Z"/><path class="cls-2" d="M236,0c0,42.42-.31,84.66-.36,126.49H238q.33-63.58.24-126.49Z"/><path class="cls-2" d="M7.44,150.39,3,154.27V159H0V142.18H3v8.63l9.81-8.63h4.1l-7.25,6.3L17.16,159H13.54Z"/><path class="cls-2" d="M35.64,154.93H27.19l-1.8,4H22.26L30,142.16h3l7.68,16.77H37.39Zm-7.33-2.51h6.21l-3.11-7.16Z"/><path class="cls-2" d="M60.19,159l-4.59-6.56H50.19V159h-3V142.18h10a6.2,6.2,0,0,1,4.25,1.32,4.81,4.81,0,0,1,1.46,3.79,5.14,5.14,0,0,1-1,3.28A4.85,4.85,0,0,1,59,152.22L63.71,159Zm-10-9.12H56.8c2.07,0,3.11-.85,3.11-2.54s-1-2.54-3.11-2.54H50.19Z"/><path class="cls-2" d="M69.28,156.83l1.29-2.37a11.75,11.75,0,0,0,7,2.17c3.17,0,4.75-.83,4.76-2.48a1.62,1.62,0,0,0-1.07-1.52A13,13,0,0,0,77.4,152c-2.69-.22-4.59-.69-5.69-1.43a3.84,3.84,0,0,1-1.65-3.47A4.38,4.38,0,0,1,72,143.26a9.35,9.35,0,0,1,5.43-1.37,11.91,11.91,0,0,1,7,2l-1.24,2.34a9.79,9.79,0,0,0-5.84-1.72,6.67,6.67,0,0,0-3.17.63A2,2,0,0,0,73,146.93a1.6,1.6,0,0,0,1.07,1.51,13.53,13.53,0,0,0,3.84.68,12.76,12.76,0,0,1,5.71,1.42A3.87,3.87,0,0,1,85.31,154a4.38,4.38,0,0,1-2,3.88,10.2,10.2,0,0,1-5.76,1.35A13.76,13.76,0,0,1,69.28,156.83Z"/><path class="cls-2" d="M104.11,154.93H95.67l-1.79,4H90.75l7.69-16.77h3L109.19,159h-3.25Zm-7.33-2.51H103l-3.11-7.16Z"/><path class="cls-2" d="M130.08,156.39V159H115.7V142.18h3v14.21Z"/><path class="cls-2" d="M149.19,156.86a9.11,9.11,0,0,1,0-12.58,10.45,10.45,0,0,1,13.31,0,9.07,9.07,0,0,1,0,12.58A10.45,10.45,0,0,1,149.19,156.86Zm11.09-1.93a6.51,6.51,0,0,0,0-8.73,6.79,6.79,0,0,0-8.89,0,6.45,6.45,0,0,0,0,8.7,6.78,6.78,0,0,0,8.88,0ZM152,137.6h7.6v1.85H152Z"/><path class="cls-2" d="M185.19,159l-4.59-6.56h-5.43V159h-3V142.18h10a6.11,6.11,0,0,1,4.25,1.32,4.85,4.85,0,0,1,1.47,3.79,5.07,5.07,0,0,1-1,3.28,4.75,4.75,0,0,1-2.92,1.65l4.74,6.73Zm-10-9.12h6.61c2.07,0,3.11-.85,3.11-2.54s-1-2.54-3.11-2.54h-6.61Z"/><path class="cls-2" d="M215.44,159h-3V145.66l-6,13.29h-2.2l-6-13.29V159h-2.87V142.18h4.25l5.79,12.8,5.79-12.8h4.24Z"/><path class="cls-2" d="M226.37,144.75v4.46h10.28v2.57H226.37v4.61h11.88V159H223.39V142.18h14.86v2.57Z"/></g></g></svg>